<?xml version="1.0" encoding="UTF-8"?>
<svg viewBox="0 0 182 182" version="1.1" xmlns="http://www.w3.org/2000/svg" xmlns:xlink="http://www.w3.org/1999/xlink">
    <!-- Generator: Sketch 53.2 (72643) - https://sketchapp.com -->
    <title>feet_light</title>
    <desc>Created with Sketch.</desc>
    <g id="feet_light" stroke="none" stroke-width="1" fill="none" fill-rule="evenodd">
        <rect id="Rectangle-Copy" fill="#FBFBFD" x="0" y="0" width="182" height="182"></rect>
        <g id="FEET" transform="translate(61.000000, 30.000000)" stroke="#021449" stroke-width="8">
            <g id="Mask" transform="translate(0.743697, 0.000000)">
                <path d="M33.3925415,20.6779661 C20.893672,20.6779661 3.75790422,28.6373026 1.61051631,44.2791243 C-0.536871592,59.9209459 3.71000709,98.766704 7.91298007,109.693453 C12.1159531,120.620201 20.9489817,122.861096 27.9174437,121.740649 C34.8859056,120.620201 42.073896,114.681938 39.5689902,105.313697 C37.0640845,95.9454557 36.9011855,77.5946308 40.4621089,67.6744063 C44.0230323,57.7541818 49.8588899,55.4133683 52.4498964,45.6031965 C57.8827992,27.0421108 45.8914111,20.6779661 33.3925415,20.6779661 Z" id="Path-13"></path>
                <path d="M47.7241812,22.429472 C51.7245294,23.8943298 56.758294,20.1316274 58.9674091,14.0252411 C61.1765241,7.91885466 59.7244428,1.78114853 55.7240946,0.31629072 C51.7237464,-1.14856709 46.6899819,2.61413527 44.4808668,8.72052166 C42.2717517,14.8269081 43.7238331,20.9646142 47.7241812,22.429472 Z" id="Oval"></path>
                <path d="M36.3446498,17.5757535 C39.2002617,17.5267812 41.4535182,14.0156229 41.3774391,9.73336176 C41.3013601,5.45110067 38.9247551,2.01934202 36.0691433,2.06831429 C33.2135314,2.11728656 30.9602749,5.62844494 31.036354,9.91070603 C31.112433,14.1929671 33.489038,17.6247258 36.3446498,17.5757535 Z" id="Oval"></path>
                <path d="M23.9308567,17.575788 C26.7864686,17.5300806 29.0397251,14.2529994 28.963646,10.2562224 C28.887567,6.25944537 26.510962,3.05647064 23.6553502,3.10217809 C20.7997383,3.14788554 18.5464818,6.42496669 18.6225609,10.4217437 C18.6986399,14.4185207 21.0752449,17.6214955 23.9308567,17.575788 Z" id="Oval"></path>
                <path d="M13.6420169,21.6944786 C16.1824665,21.4298978 17.9235902,18.2143983 17.5309254,14.5124595 C17.1382607,10.8105206 14.7605017,8.02399138 12.2200521,8.2885722 C9.67960247,8.55315303 7.93847879,11.7686525 8.33114352,15.4705914 C8.72380825,19.1725302 11.1015672,21.9590595 13.6420169,21.6944786 Z" id="Oval"></path>
                <path d="M5.91764315,29.8472598 C7.98019724,29.1681321 8.85542344,26.1324797 7.87251559,23.0669406 C6.88960773,20.0014014 4.42077301,18.0668327 2.35821892,18.7459605 C0.295664826,19.4250883 -0.579561376,22.4607406 0.403346484,25.5262798 C1.38625434,28.5918189 3.85508905,30.5263876 5.91764315,29.8472598 Z" id="Oval"></path>
            </g>
        </g>
    </g>
</svg>