<?xml version="1.0" encoding="UTF-8"?>
<svg width="453px" height="362px" viewBox="0 0 453 362" version="1.1" xmlns="http://www.w3.org/2000/svg" xmlns:xlink="http://www.w3.org/1999/xlink">
    <!-- Generator: Sketch 53.2 (72643) - https://sketchapp.com -->
    <title>Artboard</title>
    <desc>Created with Sketch.</desc>
    <g id="Artboard" stroke="none" stroke-width="1" fill="none" fill-rule="evenodd">
        <g id="Mask" fill="#000000">
            <path d="M101.065016,67.6924644 C64.3444807,67.6924644 14.001163,90.7875884 7.69233387,136.174513 C1.3835047,181.561439 13.8604457,294.277819 26.2083957,325.983303 C38.5563457,357.688787 64.5069758,364.191054 84.9796792,360.93992 C105.452383,357.688787 126.570041,340.458088 119.210857,313.274831 C111.851673,286.091573 93.4428245,231.693459 103.904492,202.908545 C114.366159,174.123631 149.441641,168.482074 157.053781,140.016494 C173.015152,86.1589171 137.785551,67.6924644 101.065016,67.6924644 Z" id="Path-13"></path>
            <ellipse id="Oval" transform="translate(154.502810, 39.971747) rotate(20.000000) translate(-154.502810, -39.971747) " cx="154.50281" cy="39.9717468" rx="22.4432492" ry="33.8526744"></ellipse>
            <ellipse id="Oval" transform="translate(108.959429, 33.869998) rotate(-1.000000) translate(-108.959429, -33.869998) " cx="108.959429" cy="33.8699977" rx="14.7171793" ry="22.2919878"></ellipse>
            <ellipse id="Oval" transform="translate(73.355318, 35.407138) rotate(-1.000000) translate(-73.355318, -35.407138) " cx="73.3553181" cy="35.4071384" rx="13.7022014" ry="20.7546094"></ellipse>
            <ellipse id="Oval" transform="translate(40.609605, 50.827612) rotate(-6.000000) translate(-40.609605, -50.827612) " cx="40.6096049" cy="50.8276121" rx="13.1669455" ry="19.2188012"></ellipse>
            <ellipse id="Oval" transform="translate(16.815574, 75.981813) rotate(-18.000000) translate(-16.815574, -75.981813) " cx="16.8155738" cy="75.9818132" rx="11.6104616" ry="16.9235446"></ellipse>
        </g>
        <g id="Mask" transform="translate(359.000000, 181.000000) scale(-1, 1) translate(-359.000000, -181.000000) translate(265.000000, 0.000000)" fill="#000000">
            <path d="M101.065016,68 C64.3444807,68 14.001163,91.0951241 7.69233387,136.482049 C1.3835047,181.868974 13.8604457,294.585354 26.2083957,326.290838 C38.5563457,357.996322 64.5069758,364.49859 84.9796792,361.247456 C105.452383,357.996322 126.570041,340.765623 119.210857,313.582366 C111.851673,286.399109 93.4428245,232.000994 103.904492,203.21608 C114.366159,174.431167 149.441641,168.78961 157.053781,140.324029 C173.015152,86.4664527 137.785551,68 101.065016,68 Z" id="Path-13"></path>
            <ellipse id="Oval" transform="translate(154.502810, 39.971747) rotate(20.000000) translate(-154.502810, -39.971747) " cx="154.50281" cy="39.9717468" rx="22.4432492" ry="33.8526744"></ellipse>
            <ellipse id="Oval" transform="translate(108.959429, 33.869998) rotate(-1.000000) translate(-108.959429, -33.869998) " cx="108.959429" cy="33.8699977" rx="14.7171793" ry="22.2919878"></ellipse>
            <ellipse id="Oval" transform="translate(73.355318, 35.407138) rotate(-1.000000) translate(-73.355318, -35.407138) " cx="73.3553181" cy="35.4071384" rx="13.7022014" ry="20.7546094"></ellipse>
            <ellipse id="Oval" transform="translate(40.609605, 50.827612) rotate(-6.000000) translate(-40.609605, -50.827612) " cx="40.6096049" cy="50.8276121" rx="13.1669455" ry="19.2188012"></ellipse>
            <ellipse id="Oval" transform="translate(16.815574, 75.981813) rotate(-18.000000) translate(-16.815574, -75.981813) " cx="16.8155738" cy="75.9818132" rx="11.6104616" ry="16.9235446"></ellipse>
        </g>
    </g>
</svg>